HIERARCHY
ROOT Pelvis
{
	OFFSET 0.000000 0.000000 0.000000
	CHANNELS 6 Xposition Yposition Zposition Zrotation Yrotation Xrotation 
	JOINT Left_hip
	{
		OFFSET 0.069463 -0.088608 -0.009542
		CHANNELS 3 Zrotation Yrotation Xrotation
		JOINT Left_knee
		{
			OFFSET 0.030639 -0.359740 -0.005288
			CHANNELS 3 Zrotation Yrotation Xrotation
			JOINT Left_ankle
			{
				OFFSET -0.011068 -0.376034 -0.042462
				CHANNELS 3 Zrotation Yrotation Xrotation
				JOINT Left_foot
				{
					OFFSET 0.023192 -0.053321 0.111332
					CHANNELS 3 Zrotation Yrotation Xrotation
					End Site
					{
						OFFSET 0.000000 0.000000 0.000000
					}
				}
			}
		}
	}
	JOINT Right_hip
	{
		OFFSET -0.067438 -0.088025 -0.006263
		CHANNELS 3 Zrotation Yrotation Xrotation
		JOINT Right_knee
		{
			OFFSET -0.035962 -0.366229 -0.008063
			CHANNELS 3 Zrotation Yrotation Xrotation
			JOINT Right_ankle
			{
				OFFSET 0.013608 -0.375719 -0.040481
				CHANNELS 3 Zrotation Yrotation Xrotation
				JOINT Right_foot
				{
					OFFSET -0.021034 -0.045527 0.114617
					CHANNELS 3 Zrotation Yrotation Xrotation
					End Site
					{
						OFFSET 0.000000 0.000000 0.000000
					}
				}
			}
		}
	}
	JOINT Spine1
	{
		OFFSET -0.002610 0.101823 -0.019986
		CHANNELS 3 Zrotation Yrotation Xrotation
		JOINT Spine2
		{
			OFFSET 0.004114 0.128714 -0.000938
			CHANNELS 3 Zrotation Yrotation Xrotation
			JOINT Spine3
			{
				OFFSET 0.002191 0.048470 0.027684
				CHANNELS 3 Zrotation Yrotation Xrotation
				JOINT Neck
				{
					OFFSET -0.002856 0.198873 -0.044022
					CHANNELS 3 Zrotation Yrotation Xrotation
					JOINT Head
					{
						OFFSET 0.002981 0.062960 0.049860
						CHANNELS 3 Zrotation Yrotation Xrotation
						End Site
						{
							OFFSET 0.000000 0.000000 0.000000
						}
					}
				}
				JOINT Left_collar
				{
					OFFSET 0.073708 0.112550 -0.033440
					CHANNELS 3 Zrotation Yrotation Xrotation
					JOINT Left_shoulder
					{
						OFFSET 0.083291 0.030786 -0.008013
						CHANNELS 3 Zrotation Yrotation Xrotation
						JOINT Left_elbow
						{
							OFFSET 0.245601 -0.011792 -0.027873
							CHANNELS 3 Zrotation Yrotation Xrotation
							JOINT Left_wrist
							{
								OFFSET 0.232258 0.008622 -0.000487
								CHANNELS 3 Zrotation Yrotation Xrotation
								JOINT Left_palm
								{
									OFFSET 0.077300 -0.009457 -0.012851
									CHANNELS 3 Zrotation Yrotation Xrotation
									End Site
									{
										OFFSET 0.000000 0.000000 0.000000
									}
								}
							}
						}
					}
				}
				JOINT Right_collar
				{
					OFFSET -0.075339 0.110574 -0.037874
					CHANNELS 3 Zrotation Yrotation Xrotation
					JOINT Right_shoulder
					{
						OFFSET -0.086522 0.031207 -0.009986
						CHANNELS 3 Zrotation Yrotation Xrotation
						JOINT Right_elbow
						{
							OFFSET -0.237313 -0.011478 -0.019859
							CHANNELS 3 Zrotation Yrotation Xrotation
							JOINT Right_wrist
							{
								OFFSET -0.237599 0.007976 -0.003742
								CHANNELS 3 Zrotation Yrotation Xrotation
								JOINT Right_palm
								{
									OFFSET -0.076920 -0.006943 -0.009920
									CHANNELS 3 Zrotation Yrotation Xrotation
									End Site
									{
										OFFSET 0.000000 0.000000 0.000000
									}
								}
							}
						}
					}
				}
			}
		}
	}
}
MOTION
Frames: 9
Frame Time: 0.100000
-0.472406 -0.196081 0.983782 64.349966 76.965826 -131.644677 6.626645 -0.250775 0.037660 1.082516 -7.578533 11.812883 -7.297512 3.614421 0.126189 3.505735 12.239454 -6.496040 3.045114 -4.496405 16.569373 -0.757683 -3.127114 0.393521 -4.904675 -1.514091 -5.249495 11.822721 -13.149913 2.292394 1.585918 1.323658 19.861356 1.284178 -4.750547 6.712831 3.618084 -2.146081 -3.668170 5.900064 -19.894742 -9.037778 12.514081 -17.042700 -17.477216 -22.617961 -2.186463 3.459508 -59.135677 -13.282105 7.390630 79.850553 -55.566670 -62.700490 -1.718848 -6.352436 -38.099521 -2.030685 0.036686 2.771093 16.337158 10.951681 -2.013305 58.735705 10.232354 8.062916 -72.199349 44.844045 -66.255874 -3.735981 1.547046 -36.965354 7.035580 5.383487 1.489237 
-0.441730 -0.195108 0.983096 43.152777 72.698267 -151.256983 6.043651 1.226392 -4.021307 1.258786 -1.374140 23.826525 -4.142617 5.554502 -2.065347 1.201591 13.748963 -8.593115 2.213348 -6.381421 14.395891 -0.544962 -6.177705 -0.593515 -3.864114 -3.502930 -3.341118 9.745295 -11.243019 1.023134 2.569664 1.623654 20.542762 0.758946 -3.853534 5.895344 3.595556 -1.994352 -1.944316 0.191996 -8.954011 -4.237848 4.494050 -4.757605 -13.018895 -21.286425 -2.010527 3.148055 -59.189481 -13.956083 8.167706 80.864281 -63.499483 -60.655936 -1.270683 -5.685792 -34.066352 -2.362087 -0.836914 2.503845 16.498964 8.672608 -0.605234 60.226493 9.107880 11.045129 -70.597853 51.737635 -63.179563 -4.478596 1.672370 -33.391734 8.691091 6.030722 0.030085 
-0.422069 -0.193243 0.978634 31.260741 66.916522 -161.681442 7.225610 1.679406 -2.186527 1.192650 -1.852926 30.875714 -3.182021 5.838379 -3.619011 -0.323373 14.660947 -10.524618 0.947666 -7.467160 12.891988 -0.037984 -9.227889 -0.694956 -3.868107 -4.825932 -2.748571 9.751265 -11.302674 0.531739 2.604185 1.576178 19.991095 0.209540 -2.833465 5.515701 3.170149 -1.808179 -1.469042 -1.499011 -5.474182 -1.565454 1.977221 -1.360437 -10.761401 -21.091019 -0.346370 2.929565 -59.028619 -14.385193 9.107318 91.014659 -69.654795 -67.448073 -1.110984 -5.911116 -30.860971 -2.207271 -1.066783 2.962130 17.685223 6.576819 0.141565 62.595264 6.590853 13.384243 -73.453587 57.859360 -63.328283 -4.285723 2.032127 -30.995854 8.987550 6.460884 -0.080749 
-0.390336 -0.189303 0.970922 26.599270 62.164166 -161.867181 8.402824 2.255251 0.812509 -0.175914 -7.957773 21.882252 -5.171837 2.270519 -4.631053 0.869202 14.100949 -10.562968 0.395668 -5.654088 2.496291 -1.532697 -12.523367 8.189676 -3.306460 -6.840955 -4.042397 8.703173 -11.934990 0.550834 1.712153 -0.346792 20.502260 0.228483 -2.152484 3.980873 2.800261 -2.415010 -2.482612 2.185742 -18.042342 -4.337429 8.111935 -15.169420 -13.362637 -20.702198 0.915727 3.703551 -60.622619 -13.770858 10.790066 102.015128 -72.215557 -73.799065 0.005209 -6.552141 -26.369522 -0.195885 -0.322671 2.620003 16.413901 7.838656 -0.919134 64.428483 5.290043 13.934350 -75.694269 62.348531 -60.319536 -4.654288 2.483747 -25.668215 5.469587 6.272127 1.749440 
-0.340544 -0.180001 0.959813 30.082414 63.472311 -155.028256 7.720927 3.504206 1.221409 -0.430017 -8.529885 10.261670 -3.021277 4.235136 -8.212141 2.161099 13.797512 -6.174237 -2.214639 -0.225617 -13.550350 -1.647693 -8.291181 26.216463 0.513649 -2.214913 -3.273464 7.372123 -12.419665 -0.978874 -0.924081 -3.287123 24.399249 2.069167 -3.157123 3.823068 2.961862 -3.764816 -3.549403 10.738870 -30.806975 -9.123227 16.653599 -29.980941 -17.999028 -19.362089 0.028645 4.869756 -59.528470 -11.728841 9.920124 106.179054 -68.226388 -75.901608 3.415841 -5.028338 -20.321424 -2.198392 -0.010207 -2.209710 13.239635 11.557373 -4.744051 60.901222 12.800798 12.084813 -89.314237 59.981095 -69.511054 -8.081931 1.940882 -18.138088 5.352227 6.745802 0.467116 
-0.326340 -0.189003 0.955381 31.375119 64.285697 -150.917756 7.221851 4.124098 -1.275473 -0.576629 -7.922725 7.176063 -4.625109 5.460379 -4.888024 5.032017 12.119648 -7.874278 -4.514897 3.762377 -16.211762 0.390580 4.014052 27.710373 2.963976 1.474137 -5.724696 4.236249 -11.236023 -0.729831 0.110258 -4.702578 19.752595 2.800779 -3.722310 3.905372 1.584128 -4.250502 -1.842320 6.778921 -32.523647 -1.125165 10.097581 -33.301525 -9.261772 -15.423642 2.758731 3.784127 -57.347477 -10.868068 10.744369 100.307412 -71.675301 -68.443141 2.515418 -4.157681 -18.824290 -6.656633 0.167199 -5.764073 8.863775 8.227673 -7.888721 50.444711 19.721650 5.894137 -88.256140 51.874916 -71.401542 -10.288667 0.234891 -17.485509 9.096543 6.648916 -2.729406 
-0.319225 -0.185279 0.961718 23.085056 59.437979 -158.861996 5.580299 1.488951 -4.035579 -0.742808 -10.650511 10.334032 -3.992084 5.011311 -5.725376 2.772642 11.238667 -7.853893 -6.744945 2.793982 -4.412454 -0.315117 10.720255 13.129057 3.183622 3.527489 -7.178539 5.024075 -12.288576 2.022743 2.637024 -4.024961 19.662138 3.046080 -5.558975 5.093647 1.674312 -4.760839 -0.322889 2.887136 -35.818975 4.730232 7.807228 -32.828805 -6.392948 -14.963071 3.694557 2.616751 -56.172856 -12.363732 10.486877 107.223848 -70.647176 -72.722810 2.022400 -6.566254 -20.549774 -6.887194 1.054852 -2.694203 6.025901 5.307993 -9.752516 33.664300 19.071337 -6.096403 -81.535882 42.283072 -67.783824 -12.389814 0.740983 -11.960643 9.701907 6.427503 -2.490108 
-0.292042 -0.182138 0.986064 18.564105 56.313049 -162.164841 3.626773 -1.488218 -16.297173 -1.545234 -8.176392 25.799818 -3.597173 4.749468 -3.565275 1.077710 12.030299 -11.241241 -6.573564 1.717338 -4.274034 -2.391514 10.554551 9.377085 1.240788 -0.107805 -7.005405 4.266604 -12.409686 3.032189 7.020968 -3.789155 26.180651 2.761132 -4.647547 4.588506 2.265077 -3.695002 0.403136 2.665472 -39.795983 2.642275 10.238716 -30.837849 -8.937951 -16.597133 2.221241 1.950240 -57.338027 -12.963792 9.990048 108.513231 -67.329200 -73.237281 1.571672 -6.614309 -23.687730 -6.012018 1.061563 -0.527379 3.198877 8.026135 -9.322800 23.337263 17.195438 -15.527513 -73.028913 30.443621 -66.371594 -14.131791 -0.525607 -10.219488 8.689776 5.938335 -2.175841 
-0.278553 -0.187390 0.992457 16.160337 55.639126 -162.862349 5.289812 0.971445 -19.989526 -0.311516 -0.034371 26.847126 -3.141060 7.065811 -4.441357 2.724142 12.787939 -9.985347 -8.228109 0.734706 -6.831294 -2.432952 8.146896 10.332655 1.467115 2.102975 -5.431644 5.268913 -14.446308 1.174556 6.034210 -3.236451 26.217923 2.298688 -3.914671 4.389984 2.224181 -3.180916 0.348281 1.119436 -39.278567 3.741856 9.306843 -30.624761 -8.397951 -16.158201 4.428147 2.750967 -62.160601 -11.485389 11.152884 105.667544 -68.398043 -71.842740 -2.701741 -6.401632 -26.928094 -3.973711 1.905575 0.780403 3.706263 8.390259 -8.354701 30.924076 22.560699 -8.997594 -70.789930 39.679296 -62.266426 -5.834384 -1.298253 -14.051670 5.885520 5.312118 -1.157829 
